# xmcd
# Copyright (C) 1995-1998 Ti Kan
#
# Track frame offsets:
#       150
#       13151
#       26936
#       46841
#       66094
#       84099
#       100554
#       119167
#       135057
#       153295
#       166583
#
# Disc length: 2485 seconds
#
# Revision: 0
# Processed by: cddbd v1.5.2PL0 Copyright (c) Steve Scherf et al.
# Submitted via: CD-Import v1.0
#
DISCID=7909b30b
DTITLE=Zero In On - Pillow Talk
DYEAR=06
DGENRE=
TTITLE0=City
TTITLE1=The Last Drive
TTITLE2=Soot
TTITLE3=Drop
TTITLE4=Ann
TTITLE5=Communication
TTITLE6=Hi
TTITLE7=P.i.a.n.o
TTITLE8=Mr. No One
TTITLE9=The White Erased Days
TTITLE10=While My Guitar Gently Weeps
EXTD=
EXTT0=
EXTT1=
EXTT2=
EXTT3=
EXTT4=
EXTT5=
EXTT6=
EXTT7=
EXTT8=
EXTT9=
EXTT10=
PLAYORDER=
